<svg xmlns="http://www.w3.org/2000/svg" version="1.1" viewBox="-5.0 -10.0 110.0 135.0">
 <path d="m17.281 91.621c-3.2656-4.9844-3.2109-11.922 0.15625-19.379 3.3008-7.3203 2.5859-9.3672-4.9219-14.105-3.2461-2.0508-6.9805-5.3711-8.3008-7.3867-5.0664-7.7305 1.6133-15.84 13.008-15.797 8.8555 0.035156 10.719-1.4297 16.57-13.055 6.4141-12.734 10.816-17.375 16.488-17.375 5.6133 0 11.031 5.5352 15.785 16.129 4.2148 9.3867 9.8359 13.215 19.414 13.215 6.7812 0 12.012 3.4609 12.012 7.9492 0 3.4141-10.777 14.805-17.328 18.309-3.8789 2.0742-4.2109 7.6602-0.92578 15.523 1.2578 3.0039 2.082 7.5391 1.8359 10.082-0.43359 4.4727-0.66797 4.6172-7.2891 4.5352-5.6445-0.070313-7.9922-1.0273-13.449-5.5-9.4648-7.7578-13.105-7.3242-22.316 2.6523-6.4258 6.9609-8.1875 8.0703-12.828 8.0703-4.1914 0-5.9375-0.85156-7.9062-3.8594h-0.003906zm18.664-10.059c12.367-10.512 18.445-10.477 31.223 0.1875 4.1836 3.4922 8.3242 4.5625 8.3242 2.1523 0-0.71875-1.3086-4.1836-2.9023-7.6992-5.4336-11.973-4.4258-14.414 11.523-27.867 6.2383-5.2617 5.8086-7.1328-1.6523-7.1602-10.191-0.039062-17.188-4.9844-22.598-15.973-2.543-5.168-5.6719-9.9844-6.9492-10.699-3.3945-1.9023-7.2266 0.70703-10.512 7.1523-8.4336 16.555-13.875 21.398-25.961 23.129-3.832 0.54688-6.9688 1.4531-6.9688 2.0078 0.003906 0.55469 2.9805 2.8906 6.6211 5.1914 11.414 7.2109 13.078 11.809 8.0469 22.227-1.5586 3.2266-2.8555 7.2227-2.8828 8.875-0.050781 2.832 2.4141 6.5273 4.3477 6.5273 0.48047 0 5.1367-3.6211 10.344-8.0508zm4.332-32.391c0-2.3555 3.3086-6.5039 5.1875-6.5039 2.918 0 2.7031 1.9766-0.53516 4.9062-2.7109 2.4531-4.6523 3.1211-4.6523 1.5977h-0.003906zm10.27-0.3125c0-1.9023 4.4727-7.6602 5.9492-7.6602 2.3203 0 1.5469 3.8008-1.3008 6.375-2.8945 2.6211-4.6523 3.1055-4.6523 1.2852zm8.8008-0.75781c0-2.6289 4.0898-6.2383 5.4844-4.8438 1.2227 1.2266-1.3438 5.6055-3.7578 6.4102-0.94922 0.31641-1.7305-0.39062-1.7305-1.5664z"/>
<text x="0.0" y="117.5" font-size="5.0" font-weight="bold" font-family="Arbeit Regular, Helvetica, Arial-Unicode, Arial, Sans-serif" fill="#000000">Created by Stocklution</text><text x="0.0" y="122.5" font-size="5.0" font-weight="bold" font-family="Arbeit Regular, Helvetica, Arial-Unicode, Arial, Sans-serif" fill="#000000">from Noun Project</text></svg>